<svg xmlns="http://www.w3.org/2000/svg" viewBox="0 0 600.67 341.79"><defs><style>.cls-1{fill:#29abe2;}.cls-2{stroke:#1d1d1b;stroke-miterlimit:10;stroke-width:0.5px;}</style></defs><title>Logo-V2_1</title><g id="Capa_2" data-name="Capa 2"><g id="Capa_2-2" data-name="Capa 2"><rect class="cls-1" x="513.5" y="41.37" width="87.17" height="87.17"/><path class="cls-1" d="M260.86,282.77c-13.65-10.47-45.72-30.2-39.86-49.1,5.26-17,15.8-33.26,21.56-50.44,1.05-3.14-2.39-6.76-5.59-5.59q-15,5.48-30,11c-7.14,2.64-22.53,11.91-29.94,11.14-16-1.65-36.07-34.81-46.57-46.69-2.6-2.94-6.77-.35-7.08,2.93a328,328,0,0,0,.21,67.63,119.59,119.59,0,0,0-56-10,4.72,4.72,0,0,0-3.29,8c7.71,8,15.54,15.95,23.71,23.53,5.59,5.2,22.57,15.14,25.22,21.91,5.54,14.18-17.28,43.74-24.22,57a4.71,4.71,0,0,0,6.39,6.39q28.91-15.78,56-34.34c4.83,14.38,10.18,28.5,16.1,42.49,1.68,4,7.47,2.33,8.56-1.12l17.47-55.27a194.69,194.69,0,0,0,64.92,9.27C263.5,291.35,264.38,285.46,260.86,282.77Zm-37.17-76q-6-5.25-12.4-10.12l19.33-7.06C228.5,195.44,226.15,201.14,223.69,206.79Zm-25.55-5.32,8.92-3.26c4.76,4.41,9.71,8.6,14.8,12.62-1.2,2.66-2.35,5.33-3.62,8-7.43-5.23-14.53-10.53-20.88-17Zm-5.87,2.44c6.66,7.73,14.54,15,23.7,19.5-1.46,2.91-2.95,5.8-4.51,8.68-4.09-3.32-8.67-6.2-12.78-9.23l-19.2-14.21A83.5,83.5,0,0,0,192.27,203.91ZM104.52,314.6l6.7-12.83a61.53,61.53,0,0,0,6,4.57,1.57,1.57,0,0,0,.78.24C113.55,309.3,109.06,312,104.52,314.6Zm15-8.92a1.63,1.63,0,0,0-.21-1.95,64,64,0,0,0-6.18-5.53q1.9-3.65,3.8-7.29c2.17,2,4.38,4,6.7,5.87,1.45,1.15,3,2.38,4.52,3.45C125.22,302.05,122.37,303.91,119.47,305.68Zm11.8-7.45c-2.06-1.63-4.31-3.09-6.3-4.69-2.25-1.8-4.39-3.73-6.48-5.7l4.49-8.61a149,149,0,0,0,17.63,12.93Q136,295.22,131.27,298.23Zm20.29-13.47c-2.58,1.79-5.19,3.54-7.8,5.29-6.08-5-12.74-9.34-19.15-13.94l2.52-4.83c.87-1.67.91-4.34-.73-5.65A564,564,0,0,1,78.67,222.8c.82,0,1.63.08,2.45.12,23.44,20.75,47.46,41.54,72.11,61.21A3.77,3.77,0,0,0,151.56,284.76ZM171,322.55c-4.45-11.21-8.5-22.55-12.24-34.05q9.18,7.25,18.49,14.23Q174.12,312.65,171,322.55Zm7.48-23.73C149.37,272.4,118.11,247.44,87,223.35a109.56,109.56,0,0,1,11.29,1.78,1.24,1.24,0,0,0,.46.68c27.6,21.5,54.7,43.61,82.16,65.28C180.11,293.66,179.29,296.24,178.48,298.82Zm3.69-11.71a752.11,752.11,0,0,0-75.64-60A113.3,113.3,0,0,1,122.38,233a4.89,4.89,0,0,0,6.64-2.88c18.55,15.86,37.24,31.6,56.38,46.74Q183.8,282,182.17,287.11Zm9.6-15.36a4.25,4.25,0,0,0-4.07.92c-19.53-15.74-39.14-31.38-58.44-47.42a2.83,2.83,0,0,0,.28-1.39c-.12-3.77-.17-7.51-.21-11.26C143,225.13,157.48,236.87,172,248.38c12.13,9.61,24.36,20.43,37.74,28.46C203.74,275.41,197.75,273.79,191.77,271.75ZM220,279a2.32,2.32,0,0,0-.6-2.56c-12.67-12.77-28.84-22.66-43.17-33.52-15.69-11.88-31.06-24.21-46.93-35.85,0-5.39.11-10.76.26-16.13,34,29.32,66.76,59.94,100.45,89.54C226.65,280.08,223.3,279.63,220,279Zm20,2.46c-34.58-34.34-72.54-65.64-110.31-96.39.25-6.34.6-12.69,1.12-19L153,191.48c4.46,5.11,11,15.91,18.23,17.66a11.35,11.35,0,0,0,2,.19l22.17,17.8c4.24,3.4,8.43,7.35,13,10.56-.42.74-.8,1.5-1.24,2.24a4.63,4.63,0,0,0,.71,5.45,332.36,332.36,0,0,0,37.3,36.53C243.41,281.83,241.71,281.62,240,281.49Z"/><path d="M16.13,104q-5.52,10.81-5.52,29.92A77.58,77.58,0,0,0,14,155.57q4.46,15.5,11.88,14.22,20.6-3.81,19.74-42.45l1.06-.63-7-121.19Q39.48,0,45.13,0a20.23,20.23,0,0,1,7,1.59q4.13,1.59,4.13,3.72V127.13a82.78,82.78,0,0,1-6.58,31.41Q41,180.41,25.89,180.4q-13.15,0-20.37-17.61A74.94,74.94,0,0,1,0,133.92a92.64,92.64,0,0,1,3-21.86Q7,96.15,13.8,93.81q3.81-1.28,5.3,2.76c.28.85.11,2.19-.53,4S17.12,103.57,16.13,104Z"/><path d="M96.36,177.65c0,2.68-2.13,4-6.37,4q-4.45,0-4.46-5.52a37.74,37.74,0,0,1,.32-4.14c.21-1.77.32-3,.32-3.71q-3.4,3-7,5.73a12.74,12.74,0,0,1-7.86,2.76q-5.31,0-8.7-5.31a19,19,0,0,1-3-10.4V147.93q0-8.91,1.27-25.26,1.28-18.89,1.49-25.46.21-3.4,7-3.4,6.38,0,6.37,3,0,4.68-2.55,13.58-3,10.83-3.39,13.8a154,154,0,0,0-1.7,23.56c0,.28-.07,1.38-.21,3.29s-.21,3.5-.21,4.77q0,11,4.88,11,6.78-3,10.82-12.1,2.11-4.66,3.82-29.71,1.27-20.16,1.27-30.56,0-3.61,6-3.61c3.68,0,5.44,1.06,5.3,3.18q-4,42.87-4,59.22v11.88Q96.35,175.74,96.36,177.65ZM72,136.9v0Zm0,.63v0Z"/><path d="M152.18,162.15q-8.93,2.76-27.38,2.76a49.66,49.66,0,0,1-18.26-3.4q-10.61-4.23-10.61-11.24,0-9.14,25.13-17.2,20.67-6.57,35.57-7l-.43-5.73q0-2.55-.44-10.82l-.22-8.07q-1.31-4.45-7.61-5.94a35.75,35.75,0,0,0-11.46,26.74q0,1.48-2.55,3.18a8.34,8.34,0,0,1-4.45,1.7,8.18,8.18,0,0,1-4.25-1.7q-2.55-1.7-2.55-3.18,0-8.91,7.64-20.37,8.92-12.94,19.11-12.95,17.61,0,17.61,34.59,0,3.62-.21,9.13t-.21,6.79q0,18-.21,20.8-1.5,16.35-7.64,16.34a11.3,11.3,0,0,1-5.1-1.8q-3.18-1.8-3.18-3.08a22.7,22.7,0,0,1,.74-4.45A50.44,50.44,0,0,0,152.18,162.15Zm1.91-11.46q0-.42.85-5.31.84-4,0-5.73l-.85-2.12q-31.43,1.07-47.12,10.4a6.6,6.6,0,0,1-2.34,1.06l-.42,1.28q0,5.29,21.86,5.3Q146,155.57,154.09,150.69Z"/><path d="M199.31,91.69q-2.12-3.39-4.63-7.22l-.21-.21q-5.9,0-12,20.8-5.05,17.4-5,24.62a4.1,4.1,0,0,1-.43,1.91l1.7,41.6q.21,3.39-4.45,3.39a9.72,9.72,0,0,1-5.42-1.59,4.64,4.64,0,0,1-2.44-3.92l2.26-97.63a1.85,1.85,0,0,1,2.06-2.13c1.64,0,3.53,1,5.65,3s3.12,4,3,6v9.34q6.79-13.8,15.28-13.8a8,8,0,0,1,6.16,2.55q5.73,3.81,8.49,32.68,3,29.92,3,71.95c0,3.25-2.13,4.88-6.37,4.88q-4.67,0-4.67-3.82V159.82q.21-21.66-.21-36.72Q200.57,101.88,199.31,91.69Z"/><path d="M296.28,187.62h-.85q-33.54-2.34-33.53-60.49a342.17,342.17,0,0,1,7.21-70.46Q279.73,5.1,301.59,5.09q8.7,0,15.07,14Q322,30.56,322,39.69A12.45,12.45,0,0,1,319.84,46q-2.13,3.49-4.88,3.5-5.52,0-7.86-6.37-.63-1.47-1.91-13.58c-.84-6.5-2.12-10.4-3.82-11.67q-13.8,1.07-19.95,30.56-4.67,21.64-4.67,54.76,0,13.59.64,24.19,1.28,17.63,2.55,23.56a59.62,59.62,0,0,0,9.76,21.65,4.82,4.82,0,0,0,3.4,1.7,35.81,35.81,0,0,0,3.82.64,11.35,11.35,0,0,0,6.58-3.19q17.4-15.7,17.4-42.23,0-3.82.64-12.53t.63-12.52a.58.58,0,0,1,.22-.42h.21a.19.19,0,0,1,.21-.21v-.22a.61.61,0,0,1,.42-.21h3.82c1.14.29,1.84,1.27,2.13,3q1.05,6.17,1.06,23.14,0,21.43-6.37,37.14Q315,188.9,296.28,187.62Zm-.85,0,.21-2.12h.85l-.21,2.12Z"/><path d="M384.36,162.15q-8.91,2.76-27.38,2.76a49.61,49.61,0,0,1-18.25-3.4q-10.62-4.23-10.61-11.24,0-9.14,25.13-17.2,20.65-6.57,35.57-7l-.44-5.73q0-2.55-.43-10.82l-.22-8.07q-1.31-4.45-7.62-5.94a35.75,35.75,0,0,0-11.46,26.74c0,1-.85,2-2.54,3.18a8.37,8.37,0,0,1-4.46,1.7,8.18,8.18,0,0,1-4.25-1.7c-1.69-1.13-2.54-2.19-2.54-3.18q0-8.91,7.64-20.37,8.91-12.94,19.1-12.95,17.61,0,17.62,34.59c0,2.41-.08,5.45-.22,9.13s-.21,5.94-.21,6.79q0,18-.21,20.8-1.49,16.35-7.64,16.34a11.38,11.38,0,0,1-5.1-1.8q-3.18-1.8-3.18-3.08a23.51,23.51,0,0,1,.74-4.45A45.35,45.35,0,0,0,384.36,162.15Zm1.91-11.46q0-.42.85-5.31.84-4,0-5.73l-.85-2.12q-31.41,1.07-47.12,10.4a6.64,6.64,0,0,1-2.33,1.06l-.43,1.28q0,5.29,21.86,5.3Q378.2,155.57,386.27,150.69Z"/><path d="M434,114h-6.79a25.77,25.77,0,0,0-9.34,1.8q-4.67,1.8-9.13,3.7l3.4,58.6a1.53,1.53,0,0,1-.86,1.49,5.86,5.86,0,0,1-2.17,0c-1.43-.15-2.3-.22-2.59-.22a9,9,0,0,1-4.42-1.27c-1.51-.85-2.27-1.84-2.27-3l3-52.85a21.73,21.73,0,0,1-5.2-.42c-2.9-.43-4.49-.64-4.78-.64a.94.94,0,0,1-1.06-1.06,10.8,10.8,0,0,1,.53-2.12,9.34,9.34,0,0,0,.53-2.34,3.85,3.85,0,0,1,2.76-3.82c1.84-.71,3.69-1.34,5.52-1.91V99.75q0-4.25,4.25-4.24t4.24,4.24v7.43q13.8-4.67,22.29-4.67,10,0,10,6.16a13.19,13.19,0,0,1-1.59,5.41q-1.59,3.28-3.29,3.29Q435.51,117.37,434,114Z"/><path d="M458,43.72l-4,59.43-1.06,38.41v57.31c0,1.7-1.14,2.55-3.4,2.55a13.13,13.13,0,0,1-7.21-2.34c-2.41-1.56-3.54-3.18-3.4-4.88l4.88-52.42,1.49-45.21-2.34-57.09c0-1.7,1.28-2.55,3.82-2.55a15.1,15.1,0,0,1,7.54,2.12C456.76,40.47,458,42,458,43.72Z"/><path d="M456.09,143.26q2.32-15.91,3-18.89A49.79,49.79,0,0,1,468,105.06q4.45-17,18.68-17,21.23,0,21.22,35.23,10.62-8.06,12.31-8.06c3,0,4.46,1.2,4.46,3.6q0,1.28-16.77,14-.21,12.73-7.42,25.26Q491.53,174,477.31,174q-10.81,0-16.77-9.55a32,32,0,0,1-4.66-17.41A31.5,31.5,0,0,1,456.09,143.26Zm12.1-20.37q-4.47,16.89-4.46,23.23a24.75,24.75,0,0,0,3.18,11.82q3.82,7.6,10,7.61,8.06,0,14-10.53a47,47,0,0,0,5.51-15.79,16.47,16.47,0,0,1-4.88,1.49l-8.91-1.49,8.91,1.49Q472,140.93,468.19,122.89Zm30.77,7V118a40.4,40.4,0,0,0-2.55-13.38q-3.6-9.75-9.76-9.76-5.31,0-8.49,7.64a26.69,26.69,0,0,0-2.55,10.83,24.81,24.81,0,0,0,3.61,12.73q4.66,7.63,12.1,7.64a11.83,11.83,0,0,0,5.09-1.48A15.34,15.34,0,0,1,499,129.89Z"/><path d="M561.36,105.7q0-10.41-9.76-10.4a13.27,13.27,0,0,0-3.19.42q-9.54,1.27-13.58,12.1-1.07,2.34-3.82,16.76a33.25,33.25,0,0,0-.21,3.61q0,7.22,6.79,11.25,3.39,2.34,14.43,5.73,9.76,3,13.37,6.16,1.92,1.48,4,3.18a6.62,6.62,0,0,1,2.55,4q.64,7.44-13.16,12.1a63.62,63.62,0,0,1-20.8,3.82,47.52,47.52,0,0,1-16.76-3.18q-10.62-3.83-10.62-9.77c0-2,1.1-4.56,3.29-7.74S518.13,149,520,149a7.23,7.23,0,0,0,3.19-1.27c.14,0,.21.28.21.85q0,1.27-2,6.15c-1.34,3.26-2,5.59-2,7a15.08,15.08,0,0,1,3.82,3A50.53,50.53,0,0,0,538,167.46a56.06,56.06,0,0,0,13.16-1.7c6.37-1.41,9.55-3.4,9.55-5.94S557,155.15,549.47,153q-14.85-4.47-20.58-8.28-11-7.22-11-20.59a51.24,51.24,0,0,1,6.79-25q8.49-14.87,21.86-14.86a24.63,24.63,0,0,1,17.19,6.58A26,26,0,0,1,572,105.7q.85,5.3-2.12,14.43-3.18,10-8.07,10c-5.37,0-8.06-.77-8.06-2.33q0,.42,3.82-8.38T561.36,105.7Z"/><path d="M248,332.41v-.17l2.84-122.9q-2.18,1.5-6.67,4.67h-8.34v-4.5q0-4.17,5.67-7.34,4.66-1.83,9.17-3.67v-5.17l9.34-3.17,1.83,4.51A131.11,131.11,0,0,1,301.39,189q4.33,0,12.17.33v.5a12.73,12.73,0,0,1,7.67,5c1.22,1.67,2.34,4.51,3.34,8.51a12.88,12.88,0,0,1,.5,3.33q0,16.68-23.68,32.19-21.69,14-40.69,14.67L262,333.74l-3.67,7.34q-11.16-1.66-11.17-6A5.7,5.7,0,0,1,248,332.41Zm62-133.24c-1.11-.22-3.12-.5-6-.84h-2.66q-23.36-.66-40.19,5.82l-.5,40.38a56,56,0,0,0,20.18-4.67,73,73,0,0,0,21.84-14q12.51-11.34,11.34-21.18C313.73,201.56,312.39,199.73,310.06,199.17Z"/><path class="cls-2" d="M304.58,340.2q-8.67,0-13.34-11.36A48,48,0,0,1,287.57,310a94.91,94.91,0,0,1,4-27.91q5.67-18.21,17-18.21a13.25,13.25,0,0,1,9.59,4,12.88,12.88,0,0,1,4.09,9.5q0,32.35-27,32.52Q297.91,332,305.42,332q8.83,0,16.25-8.63t7.42-18.5a19.49,19.49,0,0,0-1-6.2q-1.33-4,2-4,6,0,6,2.68a51.85,51.85,0,0,1-8.34,27.78Q318.25,340.2,304.58,340.2Zm2.5-66.53q-4,4.17-4.5,5.33-1.5,2.34-3.17,9l-2.67,14.84q10.51,1.17,14.84-7.17,2.84-5.34,4-18,.33-3.17-3-3.34A26.78,26.78,0,0,1,307.08,273.67Z"/><path class="cls-2" d="M356.12,266q-1.65-2.65-3.63-5.67l-.17-.16q-4.62,0-9.42,16.34-4,13.68-4,19.35a3.37,3.37,0,0,1-.33,1.5L339.93,330c.11,1.78-1.05,2.67-3.5,2.67a7.64,7.64,0,0,1-4.25-1.25,3.64,3.64,0,0,1-1.92-3.09L332,251.65a1.45,1.45,0,0,1,1.61-1.66q1.94,0,4.44,2.33c1.67,1.56,2.45,3.11,2.34,4.67v7.34q5.34-10.84,12-10.84a6.25,6.25,0,0,1,4.84,2q4.5,3,6.67,25.68,2.32,23.52,2.33,56.53,0,3.84-5,3.84-3.67,0-3.67-3v-19q.17-17-.16-28.84Q357.11,274,356.12,266Z"/><path class="cls-2" d="M407.14,321.36q-7,2.17-21.51,2.17a39,39,0,0,1-14.34-2.67Q363,317.53,363,312q0-7.17,19.74-13.51,16.23-5.16,27.95-5.5l-.34-4.5c0-1.34-.12-4.17-.34-8.51l-.17-6.33c-.69-2.34-2.68-3.89-6-4.67a28.09,28.09,0,0,0-9,21c0,.78-.67,1.61-2,2.5a6.6,6.6,0,0,1-3.51,1.33,6.44,6.44,0,0,1-3.33-1.33c-1.33-.89-2-1.72-2-2.5q0-7,6-16,7-10.17,15-10.17,13.84,0,13.84,27.18,0,2.83-.17,7.17c-.11,2.89-.16,4.67-.16,5.34q0,14.18-.17,16.34-1.17,12.84-6,12.84a8.79,8.79,0,0,1-4-1.42c-1.67-.94-2.51-1.75-2.51-2.42a18.45,18.45,0,0,1,.59-3.5A35.79,35.79,0,0,0,407.14,321.36Zm1.5-9c0-.22.22-1.61.67-4.16.44-2.12.44-3.62,0-4.51l-.67-1.66q-24.69.83-37,8.17a5.32,5.32,0,0,1-1.84.83l-.33,1q0,4.17,17.18,4.17Q402.3,316.19,408.64,312.35Z"/><path d="M365.46,230.81l.49,6.67-31,2.17V231Z"/></g></g></svg>